<svg xmlns="http://www.w3.org/2000/svg" viewBox="0 0 1520 680" font-family="'Outfit','Inter',Segoe UI,sans-serif">
  <defs>
    <marker id="arrow" viewBox="0 0 10 10" refX="9" refY="5" markerWidth="8" markerHeight="8" orient="auto-start-reverse">
      <path d="M0,0 L10,5 L0,10 z" fill="#0f172a"/>
    </marker>
    <marker id="arrowO" viewBox="0 0 10 10" refX="9" refY="5" markerWidth="8" markerHeight="8" orient="auto-start-reverse">
      <path d="M0,0 L10,5 L0,10 z" fill="#F26A21"/>
    </marker>
  </defs>
  <rect x="0" y="0" width="1520" height="680" rx="18" fill="#ffffff"/>
  <g stroke="#cbd5e1" stroke-width="1.5" stroke-dasharray="5 6">
    <line x1="90" y1="66" x2="90" y2="606"/>
    <line x1="313" y1="66" x2="313" y2="606"/>
    <line x1="537" y1="66" x2="537" y2="606"/>
    <line x1="760" y1="66" x2="760" y2="606"/>
    <line x1="983" y1="66" x2="983" y2="606"/>
    <line x1="1207" y1="66" x2="1207" y2="606"/>
    <line x1="1430" y1="66" x2="1430" y2="606"/>
  </g>
  <rect x="530" y="158" width="14" height="60" rx="3" fill="#dbeafe" stroke="#0077CC" stroke-width="1"/>
  <rect x="753" y="205" width="14" height="370" rx="3" fill="#dbeafe" stroke="#0077CC" stroke-width="1"/>
  <g font-size="13.5" font-weight="700" text-anchor="middle">
    <g><rect x="20" y="24" width="140" height="42" rx="9" fill="#0f172a"/><text x="90" y="50" fill="#fff">Utilisateur</text></g>
    <g><rect x="238" y="24" width="150" height="42" rx="9" fill="#0077CC"/><text x="313" y="50" fill="#fff">Application Web</text></g>
    <g><rect x="465" y="24" width="144" height="42" rx="9" fill="#1d4ed8"/><text x="537" y="50" fill="#fff">Passerelle API</text></g>
    <g><rect x="678" y="24" width="164" height="42" rx="9" fill="#0077CC"/><text x="760" y="50" fill="#fff">Service Livestream</text></g>
    <g><rect x="919" y="24" width="128" height="42" rx="9" fill="#0077CC"/><text x="983" y="50" fill="#fff">PostgreSQL</text></g>
    <g><rect x="1151" y="24" width="112" height="42" rx="9" fill="#0077CC"/><text x="1207" y="50" fill="#fff">Kafka</text></g>
    <g><rect x="1364" y="24" width="132" height="42" rx="9" fill="#0077CC"/><text x="1430" y="50" fill="#fff">WebSocket</text></g>
  </g>
  <g font-size="13.5" fill="#0f172a" text-anchor="middle">
    <line x1="90" y1="112" x2="309" y2="112" stroke="#0f172a" stroke-width="2" marker-end="url(#arrow)"/>
    <text x="200" y="104">&#201;crit et envoie un message</text>
    <circle cx="90" cy="112" r="10" fill="#F26A21"/><text x="90" y="116" fill="#fff" font-size="12" font-weight="700">1</text>
    <line x1="313" y1="165" x2="533" y2="165" stroke="#0f172a" stroke-width="2" marker-end="url(#arrow)"/>
    <text x="423" y="157">Envoie le message (token JWT)</text>
    <circle cx="313" cy="165" r="10" fill="#F26A21"/><text x="313" y="169" fill="#fff" font-size="12" font-weight="700">2</text>
    <line x1="544" y1="210" x2="752" y2="210" stroke="#0f172a" stroke-width="2" marker-end="url(#arrow)"/>
    <text x="648" y="202">Transmet la requ&#234;te</text>
    <circle cx="537" cy="210" r="10" fill="#F26A21"/><text x="537" y="214" fill="#fff" font-size="12" font-weight="700">3</text>
    <path d="M767,250 h56 v30 h-56" fill="none" stroke="#0f172a" stroke-width="2" marker-end="url(#arrow)"/>
    <text x="833" y="258" text-anchor="start">V&#233;rifie l'auteur (JWT) et qu'il n'est pas banni</text>
    <circle cx="760" cy="250" r="10" fill="#F26A21"/><text x="760" y="254" fill="#fff" font-size="12" font-weight="700">4</text>
    <line x1="767" y1="326" x2="979" y2="326" stroke="#0f172a" stroke-width="2" marker-end="url(#arrow)"/>
    <text x="873" y="318">Enregistre le message</text>
    <circle cx="760" cy="326" r="10" fill="#F26A21"/><text x="760" y="330" fill="#fff" font-size="12" font-weight="700">5</text>
    <line x1="983" y1="366" x2="770" y2="366" stroke="#64748b" stroke-width="2" stroke-dasharray="6 5" marker-end="url(#arrow)"/>
    <text x="877" y="358" fill="#475569">Message enregistr&#233;</text>
    <line x1="767" y1="418" x2="1203" y2="418" stroke="#0f172a" stroke-width="2" marker-end="url(#arrow)"/>
    <text x="985" y="410">Publie l'&#233;v&#233;nement &#171; nouveau message &#187;</text>
    <circle cx="760" cy="418" r="10" fill="#F26A21"/><text x="760" y="422" fill="#fff" font-size="12" font-weight="700">6</text>
    <line x1="767" y1="470" x2="1426" y2="470" stroke="#0f172a" stroke-width="2" marker-end="url(#arrow)"/>
    <text x="1096" y="462">Diffuse le message</text>
    <circle cx="760" cy="470" r="10" fill="#F26A21"/><text x="760" y="474" fill="#fff" font-size="12" font-weight="700">7</text>
    <line x1="1430" y1="522" x2="94" y2="522" stroke="#F26A21" stroke-width="2" marker-end="url(#arrowO)"/>
    <text x="760" y="514" fill="#F26A21" font-weight="600">Nouveau message affich&#233; en temps r&#233;el</text>
    <circle cx="1430" cy="522" r="10" fill="#F26A21"/><text x="1430" y="526" fill="#fff" font-size="12" font-weight="700">8</text>
    <line x1="753" y1="574" x2="316" y2="574" stroke="#64748b" stroke-width="2" stroke-dasharray="6 5" marker-end="url(#arrow)"/>
    <text x="536" y="566" fill="#475569">Confirmation : &#171; message publi&#233; &#187;</text>
  </g>
  <g font-size="12.5" font-weight="600" text-anchor="middle" fill="#64748b">
    <text x="90" y="628">Utilisateur</text>
    <text x="313" y="628">Application Web</text>
    <text x="537" y="628">Passerelle API</text>
    <text x="760" y="628">Service Livestream</text>
    <text x="983" y="628">PostgreSQL</text>
    <text x="1207" y="628">Kafka</text>
    <text x="1430" y="628">WebSocket</text>
  </g>
</svg>
